<svg width="508" height="103" viewBox="0 0 508 103" fill="none" xmlns="http://www.w3.org/2000/svg">
<path d="M30.096 59.032H11.52L6.48 73H0.576L19.656 21.808H22.392L41.544 73H35.28L30.096 59.032ZM13.464 53.848H28.296L22.68 38.512L20.88 30.88H20.808L19.008 38.656L13.464 53.848ZM90.9771 85.312C89.8251 85.648 88.6971 85.864 87.5931 85.96C86.4891 86.104 85.3851 86.176 84.2811 86.176C81.8811 86.176 79.5291 85.912 77.2251 85.384C74.9691 84.904 72.7611 84.352 70.6011 83.728C68.4891 83.152 66.4491 82.6 64.4811 82.072C62.5131 81.592 60.6411 81.352 58.8651 81.352C57.7131 81.352 56.6091 81.496 55.5531 81.784V76.528C56.2251 76.384 56.8731 76.264 57.4971 76.168C58.1211 76.072 58.7691 76.024 59.4411 76.024C61.4571 76.024 63.4491 76.264 65.4171 76.744C67.4331 77.272 69.4731 77.824 71.5371 78.4C73.6011 79.024 75.7131 79.576 77.8731 80.056C80.0331 80.584 82.3131 80.848 84.7131 80.848C86.8251 80.848 88.9131 80.608 90.9771 80.128V85.312ZM44.3211 47.8C44.3211 39.4 46.0971 32.968 49.6491 28.504C53.2011 23.992 58.2651 21.736 64.8411 21.736C68.3931 21.736 71.4651 22.36 74.0571 23.608C76.6491 24.856 78.7851 26.632 80.4651 28.936C82.1931 31.192 83.4651 33.928 84.2811 37.144C85.0971 40.312 85.5051 43.864 85.5051 47.8C85.5051 56.2 83.7051 62.656 80.1051 67.168C76.5531 71.632 71.4651 73.864 64.8411 73.864C61.3371 73.864 58.2891 73.24 55.6971 71.992C53.1531 70.744 51.0171 68.992 49.2891 66.736C47.6091 64.432 46.3611 61.696 45.5451 58.528C44.7291 55.312 44.3211 51.736 44.3211 47.8ZM50.6571 47.8C50.6571 50.584 50.9211 53.224 51.4491 55.72C52.0251 58.216 52.8891 60.424 54.0411 62.344C55.1931 64.216 56.6571 65.728 58.4331 66.88C60.2571 67.984 62.3931 68.536 64.8411 68.536C69.3051 68.536 72.8091 66.856 75.3531 63.496C77.8971 60.088 79.1691 54.856 79.1691 47.8C79.1691 45.064 78.8811 42.448 78.3051 39.952C77.7771 37.408 76.9131 35.2 75.7131 33.328C74.5611 31.408 73.0731 29.896 71.2491 28.792C69.4731 27.64 67.3371 27.064 64.8411 27.064C60.4251 27.064 56.9451 28.768 54.4011 32.176C51.9051 35.536 50.6571 40.744 50.6571 47.8ZM124.572 22.6H130.332V56.224C130.332 59.248 129.924 61.864 129.108 64.072C128.34 66.28 127.212 68.104 125.724 69.544C124.284 70.936 122.532 71.968 120.468 72.64C118.404 73.312 116.124 73.648 113.628 73.648C107.676 73.648 103.188 72.304 100.164 69.616C97.1398 66.928 95.6278 62.848 95.6278 57.376V22.6H101.604V54.568C101.604 57.112 101.844 59.272 102.324 61.048C102.852 62.776 103.62 64.192 104.628 65.296C105.636 66.352 106.884 67.12 108.372 67.6C109.908 68.08 111.684 68.32 113.7 68.32C117.588 68.32 120.372 67.264 122.052 65.152C123.732 62.992 124.572 59.464 124.572 54.568V22.6ZM166.573 59.032H147.997L142.957 73H137.053L156.133 21.808H158.869L178.021 73H171.757L166.573 59.032ZM149.941 53.848H164.773L159.157 38.512L157.357 30.88H157.285L155.485 38.656L149.941 53.848ZM223.45 39.16L224.17 31.6H223.81L221.074 38.512L207.97 61.264H206.17L192.274 38.44L189.682 31.6H189.322L190.33 39.088V73H184.714V22.6H189.178L204.946 48.376L207.322 53.992H207.466L209.698 48.232L224.746 22.6H229.426V73H223.45V39.16ZM243.035 22.6H249.011V73H243.035V22.6ZM262.62 23.104C264.444 22.768 266.532 22.504 268.884 22.312C271.284 22.12 273.468 22.024 275.436 22.024C277.644 22.024 279.732 22.264 281.7 22.744C283.716 23.224 285.468 24.016 286.956 25.12C288.492 26.224 289.716 27.664 290.628 29.44C291.54 31.216 291.996 33.376 291.996 35.92C291.996 39.856 290.916 43.048 288.756 45.496C286.596 47.944 283.86 49.576 280.548 50.392L284.004 53.056L296.532 73H289.548L275.652 51.256L268.596 50.176V73H262.62V23.104ZM275.58 27.208C274.956 27.208 274.308 27.208 273.636 27.208C272.964 27.208 272.316 27.232 271.692 27.28C271.068 27.328 270.468 27.376 269.892 27.424C269.364 27.472 268.932 27.544 268.596 27.64V46.216H274.212C277.524 46.216 280.26 45.4 282.42 43.768C284.58 42.136 285.66 39.592 285.66 36.136C285.66 33.544 284.772 31.408 282.996 29.728C281.22 28.048 278.748 27.208 275.58 27.208Z" fill="white"/>
<path d="M0 102L298 102" stroke="white" stroke-width="2"/>
</svg>
