<svg width="1600" height="2326" viewBox="0 0 1600 2326" fill="none" xmlns="http://www.w3.org/2000/svg">
<path d="M168.516 11.533C87.916 73.1822 22.5887 37.2202 0 11.533V2326H800H1600V11.533C1530.15 76.7664 1464.07 33.0745 1431.92 11.8201L1431.48 11.533C1336.13 81.7796 1273.76 27.2599 1242.58 11.533C1173.97 71.5047 1102.05 36.5212 1074.66 11.533C978.711 72.3435 925.337 22.1923 880.36 11.533C807.796 74.9646 747.626 29.7063 722.639 11.533C637.721 73.1822 566.117 29.5315 540.93 0C459.85 75.9082 383.208 39.3171 355.022 11.533C282.579 76.5373 200.5 38.6181 168.516 11.533Z" fill="#82B4B3"/>
<path d="M129.286 70.9824C48.6866 131.048 22.5887 96.0098 0 70.9824V2326H800H1600V70.9824C1529.84 134.828 1496.79 91.5832 1464.81 70.9824C1369.45 139.425 1324.7 77.5989 1293.52 62.276C1224.91 120.707 1136.99 100.13 1088.1 62.276C992.153 121.525 931.911 92.1351 880.36 70.9824C807.796 132.785 746.891 70.3668 721.903 52.6604C672.026 129.079 524.613 99.7554 499.426 70.9824C418.346 144.941 341.229 92.383 313.043 65.3126C240.6 128.647 161.27 97.3718 129.286 70.9824Z" fill="#085D74"/>
</svg>
