<svg width="310" height="86" viewBox="0 0 310 86" fill="none" xmlns="http://www.w3.org/2000/svg">
<path d="M81.3321 26.12H86.5641L94.8681 65H89.7321L87.9561 55.208H80.0361L78.1641 65H73.0761L81.3321 26.12ZM87.2361 51.32L83.9721 33.8L80.7561 51.32H87.2361ZM116.575 72.872C114.623 71.912 112.287 69.416 109.567 65.384C109.375 65.416 109.071 65.432 108.655 65.432C104.847 65.432 102.111 64.36 100.447 62.216C98.8153 60.04 97.9993 56.904 97.9993 52.808V38.072C97.9993 34.04 98.8313 30.984 100.495 28.904C102.159 26.824 104.879 25.784 108.655 25.784C112.431 25.784 115.151 26.84 116.815 28.952C118.479 31.032 119.311 34.072 119.311 38.072V52.856C119.311 59.032 117.407 62.92 113.599 64.52C115.199 66.6 116.479 67.96 117.439 68.6L116.575 72.872ZM108.655 61.16C110.703 61.16 112.079 60.568 112.783 59.384C113.487 58.2 113.839 56.408 113.839 54.008V36.968C113.839 34.6 113.487 32.856 112.783 31.736C112.079 30.584 110.703 30.008 108.655 30.008C106.607 30.008 105.231 30.584 104.527 31.736C103.823 32.856 103.471 34.6 103.471 36.968V54.008C103.471 56.408 103.823 58.2 104.527 59.384C105.231 60.568 106.607 61.16 108.655 61.16ZM134.72 65.432C132 65.432 129.872 64.888 128.336 63.8C126.832 62.712 125.792 61.192 125.216 59.24C124.64 57.288 124.352 54.84 124.352 51.896V26.12H129.536V52.136C129.536 55.08 129.872 57.32 130.544 58.856C131.248 60.392 132.64 61.16 134.72 61.16C136.8 61.16 138.176 60.392 138.848 58.856C139.552 57.32 139.904 55.08 139.904 52.136V26.12H145.04V51.896C145.04 54.84 144.752 57.288 144.176 59.24C143.6 61.192 142.56 62.712 141.056 63.8C139.552 64.888 137.44 65.432 134.72 65.432ZM156.895 26.12H162.127L170.431 65H165.295L163.519 55.208H155.599L153.727 65H148.639L156.895 26.12ZM162.799 51.32L159.535 33.8L156.319 51.32H162.799ZM175 26.12H180.328L187.192 57.656L194.104 26.12H199.384L200.104 65H195.736L195.304 36.776L188.728 65H185.656L179.128 36.776L178.696 65H174.28L175 26.12ZM206.351 26.12H211.679V65H206.351V26.12ZM217.969 26.12H225.793C229.729 26.12 232.609 26.936 234.433 28.568C236.289 30.168 237.217 32.792 237.217 36.44C237.217 41.432 235.617 44.456 232.417 45.512L237.937 65H232.705L227.617 46.76H223.393V65H217.969V26.12ZM225.457 42.872C227.793 42.872 229.457 42.408 230.449 41.48C231.473 40.552 231.985 38.872 231.985 36.44C231.985 34.84 231.809 33.592 231.457 32.696C231.105 31.768 230.481 31.096 229.585 30.68C228.689 30.232 227.425 30.008 225.793 30.008H223.393V42.872H225.457Z" fill="black"/>
<path d="M1 53C5.16667 49.3333 15.4 43.6 23 46C33 49.1579 42 62 54 49.5" stroke="black" stroke-width="3"/>
<path d="M255 53C259.167 49.3333 269.4 43.6 277 46C287 49.1579 296 62 308 49.5" stroke="black" stroke-width="3"/>
</svg>
