<svg width="112" height="45" viewBox="0 0 112 45" fill="none" xmlns="http://www.w3.org/2000/svg">
<path d="M9.792 0.199997H6.016L0.448 45H4.544L5.76 33.8H10.112L11.264 45H15.36L9.792 0.199997ZM9.728 30.088H6.144L7.936 13.064L9.728 30.088ZM31.811 5.832C31.811 4.25333 31.2777 2.93066 30.211 1.864C29.1017 0.754664 27.779 0.199997 26.243 0.199997H22.467C20.9737 0.199997 19.6723 0.754664 18.563 1.864C17.4537 2.97333 16.899 4.296 16.899 5.832V39.432C16.899 40.9253 17.4537 42.2267 18.563 43.336C19.6723 44.4453 20.9737 45 22.467 45H35.587V41.288H31.555C31.7257 40.776 31.811 40.1573 31.811 39.432V5.832ZM24.387 3.912C25.411 3.912 26.2857 4.27467 27.011 5C27.7363 5.81067 28.099 6.70667 28.099 7.688V37.512C28.099 38.4933 27.7363 39.3893 27.011 40.2C26.2857 40.9253 25.411 41.288 24.387 41.288C23.4057 41.288 22.5097 40.9253 21.699 40.2C20.9737 39.3893 20.611 38.4933 20.611 37.512V7.688C20.611 6.70667 20.9737 5.81067 21.699 5C22.5097 4.27467 23.4057 3.912 24.387 3.912ZM40.861 0.199997H37.149V39.432C37.149 40.9253 37.7037 42.2267 38.813 43.336C39.9223 44.4453 41.2237 45 42.717 45H46.493C48.029 45 49.3517 44.4453 50.461 43.336C51.5277 42.2693 52.061 40.968 52.061 39.432V0.199997H48.349V37.512C48.349 38.4933 47.9863 39.3893 47.261 40.2C46.5357 40.9253 45.661 41.288 44.637 41.288C43.6557 41.288 42.7597 40.9253 41.949 40.2C41.2237 39.3893 40.861 38.4933 40.861 37.512V0.199997ZM62.8545 0.199997H59.0785L53.5105 45H57.6065L58.8225 33.8H63.1745L64.3265 45H68.4225L62.8545 0.199997ZM62.7905 30.088H59.2065L60.9985 13.064L62.7905 30.088ZM88.6495 0.199997H82.6335L79.3055 31.944L75.9135 0.199997H69.9615V45H73.6735V15.112L77.4495 45H81.1615L84.8735 15.112V45H88.6495V0.199997ZM94.4235 0.199997H90.7115V45H94.4235V0.199997ZM111.499 5.832C111.499 4.25333 110.965 2.93066 109.899 1.864C108.789 0.754664 107.467 0.199997 105.931 0.199997H96.5865V45H100.299V24.456H104.075C105.099 24.456 105.973 24.8187 106.699 25.544C107.424 26.3547 107.787 27.2507 107.787 28.232V45H111.499V25.352C111.499 24.584 111.243 23.944 110.731 23.432L110.411 23.112C109.941 22.7707 109.408 22.6 108.811 22.6C109.323 22.6 109.856 22.4293 110.411 22.088C110.453 22.0027 110.496 21.96 110.539 21.96C110.581 21.9173 110.645 21.8533 110.731 21.768C111.243 21.256 111.499 20.616 111.499 19.848V5.832ZM104.075 3.912C105.099 3.912 105.973 4.27467 106.699 5C107.424 5.81067 107.787 6.70667 107.787 7.688V17.032C107.787 17.9707 107.424 18.8453 106.699 19.656C105.973 20.3813 105.099 20.744 104.075 20.744H100.299V3.912H104.075Z" fill="white"/>
</svg>
