<svg width="281" height="87" viewBox="0 0 281 87" fill="none" xmlns="http://www.w3.org/2000/svg">
<path d="M30.5625 47.125H11.5L7.21875 59H1.03125L18.4062 13.5H23.6562L41.0625 59H34.9062L30.5625 47.125ZM13.3125 42.1875H28.7812L21.0312 20.9062L13.3125 42.1875ZM81.5625 37.7188C81.5625 42.1146 80.8646 45.9062 79.4688 49.0938C78.0729 52.2604 76.1146 54.7396 73.5938 56.5312L81.7188 62.9062L77.625 66.6875L68.0312 59.0625C66.5312 59.4375 64.9479 59.625 63.2812 59.625C59.6979 59.625 56.5208 58.75 53.75 57C50.9792 55.2292 48.8229 52.7188 47.2812 49.4688C45.7604 46.1979 44.9792 42.4167 44.9375 38.125V34.8438C44.9375 30.4688 45.6979 26.6042 47.2188 23.25C48.7396 19.8958 50.8854 17.3333 53.6562 15.5625C56.4479 13.7708 59.6354 12.875 63.2188 12.875C66.8854 12.875 70.1042 13.7604 72.875 15.5312C75.6667 17.3021 77.8125 19.8542 79.3125 23.1875C80.8125 26.5 81.5625 30.375 81.5625 34.8125V37.7188ZM75.5625 34.7812C75.5625 29.4271 74.4896 25.3021 72.3438 22.4062C70.2188 19.4896 67.1771 18.0312 63.2188 18.0312C59.4479 18.0312 56.4688 19.4792 54.2812 22.375C52.1146 25.25 51 29.25 50.9375 34.375V37.7188C50.9375 42.9271 52.0208 47.0312 54.1875 50.0312C56.375 53.0312 59.4062 54.5312 63.2812 54.5312C67.1562 54.5312 70.1562 53.125 72.2812 50.3125C74.4062 47.4792 75.5 43.4271 75.5625 38.1562V34.7812ZM122.844 13.5V44.4375C122.823 48.7292 121.469 52.2396 118.781 54.9688C116.115 57.6979 112.49 59.2292 107.906 59.5625L106.312 59.625C101.333 59.625 97.3646 58.2812 94.4062 55.5938C91.4479 52.9062 89.9479 49.2083 89.9062 44.5V13.5H95.8438V44.3125C95.8438 47.6042 96.75 50.1667 98.5625 52C100.375 53.8125 102.958 54.7188 106.312 54.7188C109.708 54.7188 112.302 53.8125 114.094 52C115.906 50.1875 116.812 47.6354 116.812 44.3438V13.5H122.844ZM156.75 47.125H137.688L133.406 59H127.219L144.594 13.5H149.844L167.25 59H161.094L156.75 47.125ZM139.5 42.1875H154.969L147.219 20.9062L139.5 42.1875ZM181.125 13.5L196 50.625L210.875 13.5H218.656V59H212.656V41.2812L213.219 22.1562L198.281 59H193.688L178.781 22.25L179.375 41.2812V59H173.375V13.5H181.125ZM235.688 59H229.688V13.5H235.688V59ZM263.375 40.5938H252.688V59H246.656V13.5H261.719C266.844 13.5 270.781 14.6667 273.531 17C276.302 19.3333 277.688 22.7292 277.688 27.1875C277.688 30.0208 276.917 32.4896 275.375 34.5938C273.854 36.6979 271.729 38.2708 269 39.3125L279.688 58.625V59H273.25L263.375 40.5938ZM252.688 35.6875H261.906C264.885 35.6875 267.25 34.9167 269 33.375C270.771 31.8333 271.656 29.7708 271.656 27.1875C271.656 24.375 270.812 22.2188 269.125 20.7188C267.458 19.2188 265.042 18.4583 261.875 18.4375H252.688V35.6875Z" fill="#303030"/>
<rect y="83" width="281" height="4" fill="#303030"/>
</svg>
